<svg xmlns="http://www.w3.org/2000/svg" viewBox="0 0 150.15 35.61"><defs><style>.cls-1{fill:#c12c26;}</style></defs><g id="Layer_2" data-name="Layer 2"><g id="Layer_1-2" data-name="Layer 1"><path class="cls-1" d="M0,0V35.61H150.15V0ZM24,17.3a3.89,3.89,0,0,1-1.07,2.87,5,5,0,0,1-3.61,1.08H15.4v6.69H9.82V7.48h9.47A5,5,0,0,1,22.9,8.56,3.89,3.89,0,0,1,24,11.43ZM35.86,27.94l-3.24-7.26h-.36v7.26H26.68V7.48h9.47a5,5,0,0,1,3.62,1.08,3.93,3.93,0,0,1,1.06,2.87v5.29a3.91,3.91,0,0,1-1.06,2.87,3.5,3.5,0,0,1-1.68.88l3.76,7.47Zm22-12.33V24a3.91,3.91,0,0,1-1.06,2.87,5,5,0,0,1-3.62,1.08H48.45a5,5,0,0,1-3.62-1.08A3.92,3.92,0,0,1,43.76,24V11.43a3.93,3.93,0,0,1,1.07-2.87,5,5,0,0,1,3.62-1.08h4.72a5,5,0,0,1,3.62,1.08,3.93,3.93,0,0,1,1.06,2.87Zm17.92-4.14h-6.7v5h5.8V20.1h-5.8v7.84H63.49V7.48H75.77ZM87.49,27.94l-3.24-7.26h-.36v7.26H78.31V7.48h9.47A5,5,0,0,1,91.4,8.56a3.93,3.93,0,0,1,1.07,2.87v5.29a3.92,3.92,0,0,1-1.07,2.87,3.45,3.45,0,0,1-1.68.88l3.77,7.47Zm22-12.33V24a3.92,3.92,0,0,1-1.07,2.87,5,5,0,0,1-3.62,1.08h-4.72a5,5,0,0,1-3.61-1.08A3.88,3.88,0,0,1,95.4,24V11.43a3.89,3.89,0,0,1,1.07-2.87,5,5,0,0,1,3.61-1.08h4.72a5,5,0,0,1,3.62,1.08,3.93,3.93,0,0,1,1.07,2.87Zm17.69,12.33H122.4L117.84,17.2V27.94h-5.1V7.48h4.78l4.56,10.93V7.48h5.1Zm15.68-16.47h-4V27.94h-5.58V11.47h-3.92v-4h13.45Z"/><path class="cls-1" d="M103.72,11.64a.87.87,0,0,0-.61-.17h-1.34a.86.86,0,0,0-.6.17.67.67,0,0,0-.19.53V23.26a.65.65,0,0,0,.19.52.86.86,0,0,0,.6.18h1.34a.87.87,0,0,0,.61-.18.65.65,0,0,0,.19-.52V12.17A.67.67,0,0,0,103.72,11.64Z"/><path class="cls-1" d="M52.08,11.64a.84.84,0,0,0-.6-.17H50.14a.87.87,0,0,0-.61.17.71.71,0,0,0-.19.53V23.26a.69.69,0,0,0,.19.52.87.87,0,0,0,.61.18h1.34a.84.84,0,0,0,.6-.18.66.66,0,0,0,.2-.52V12.17A.68.68,0,0,0,52.08,11.64Z"/><path class="cls-1" d="M34.46,16.88a.84.84,0,0,0,.6-.17.67.67,0,0,0,.19-.53v-4a.67.67,0,0,0-.19-.53.84.84,0,0,0-.6-.17h-2.2v5.41Z"/><path class="cls-1" d="M17.6,11.47H15.4v5.8h2.2a.84.84,0,0,0,.6-.18.67.67,0,0,0,.19-.52v-4.4a.67.67,0,0,0-.19-.53A.84.84,0,0,0,17.6,11.47Z"/><path class="cls-1" d="M86.09,16.88a.87.87,0,0,0,.61-.17.67.67,0,0,0,.19-.53v-4a.67.67,0,0,0-.19-.53.87.87,0,0,0-.61-.17h-2.2v5.41Z"/></g></g></svg>